<?xml version="1.0" encoding="utf-8"?>
<!-- Generator: Adobe Illustrator 16.0.4, SVG Export Plug-In . SVG Version: 6.00 Build 0)  -->
<!DOCTYPE svg PUBLIC "-//W3C//DTD SVG 1.1//EN" "http://www.w3.org/Graphics/SVG/1.1/DTD/svg11.dtd">
<svg version="1.1" id="Layer_1" xmlns="http://www.w3.org/2000/svg" xmlns:xlink="http://www.w3.org/1999/xlink" x="0px" y="0px"
	 width="72.613px" height="113.655px" viewBox="0 0 72.613 113.655" enable-background="new 0 0 72.613 113.655"
	 xml:space="preserve">
<g id="Robot_Body">
	<defs>
		<path id="SVGID_1_" d="M0,0v113.66h72.61V0H0z M20.881,109.761l-0.299-41.809l33.958-0.262l0.299,41.809L20.881,109.761z"/>
	</defs>
	<clipPath id="SVGID_2_">
		<use xlink:href="#SVGID_1_"  overflow="visible"/>
	</clipPath>
	<path id="Robot_Body_1_" clip-path="url(#SVGID_2_)" fill="#FFDD00" d="M23.177,14.527c2.305,0,4.173,1.869,4.173,4.173
		s-1.869,4.173-4.173,4.173s-4.173-1.868-4.173-4.173S20.872,14.527,23.177,14.527z M45.263,18.7c0,2.305,1.868,4.173,4.173,4.173
		s4.173-1.868,4.173-4.173s-1.868-4.173-4.173-4.173S45.263,16.396,45.263,18.7z M72.613,0v39.226H40.717v3.34l31.896,0.001V100
		H54.069L39.954,85.884l8.112-8.109l-8.112-8.111l2.371-2.37l10.484,10.481l-4.6,4.599l9.28,9.28h6.778V50.912H8.346v40.744h9.781
		l9.279-9.28l-4.598-4.6l10.479-10.48l2.371,2.37l-8.111,8.11l8.111,8.11L21.544,100H0V42.567l31.896-0.002v-3.34H0V0H72.613z
		 M64.267,7.75H8.346v23.129h55.921V7.75z"/>
</g>
<g id="Newspaper">
	<path fill="#FFDD00" d="M37.56,74.904l-9.703,0.075c-1.487,0.013-2.688,1.229-2.676,2.716c0.013,1.491,1.23,2.688,2.719,2.674
		l9.703-0.074c1.487-0.01,2.687-1.223,2.675-2.716C40.266,76.09,39.048,74.896,37.56,74.904z"/>
	<path fill="#FFDD00" d="M37.63,84.07l-9.7,0.074c-1.488,0.011-2.689,1.229-2.678,2.717c0.013,1.49,1.23,2.686,2.719,2.675
		l9.703-0.075c1.489-0.011,2.687-1.222,2.675-2.716C40.337,85.256,39.12,84.06,37.63,84.07z"/>
	<path fill="#FFDD00" d="M37.701,93.234L28,93.311c-1.488,0.017-2.689,1.229-2.677,2.717c0.013,1.49,1.229,2.686,2.718,2.677
		l9.704-0.077c1.488-0.009,2.686-1.227,2.674-2.716C40.407,94.422,39.19,93.227,37.701,93.234z"/>
	<path fill="#FFDD00" d="M49.487,65.108l-30.464,0.234c-1.489,0.012-2.686,1.228-2.673,2.718l0.28,37.199
		c0.004,0.716,0.295,1.399,0.803,1.901c0.511,0.5,1.198,0.779,1.913,0.773l24.598-0.189l0.027,3.232
		c0.012,1.488,1.027,2.692,2.516,2.679l3.371-0.026c5.316-0.041,8.668-3.07,8.629-8.107L58.231,72.59
		C58.198,68.076,54.563,65.068,49.487,65.108z M53.093,105.564c0.02,2.459-1.461,2.662-3.275,2.676l-0.479,0.001l-0.215-28.035H49.6
		c1.121-0.01,2.221-0.167,3.293-0.45L53.093,105.564z M49.559,74.813l-3.371,0.026c-1.488,0.009-2.486,1.224-2.475,2.711
		l0.189,24.804L22,102.521l-0.24-31.808l27.769-0.215c3.096-0.024,3.107,1.543,3.113,2.134
		C52.651,74.062,51.616,74.796,49.559,74.813z"/>
</g>
</svg>
